<svg xmlns="http://www.w3.org/2000/svg" viewBox="0 0 269.46899 98.814003" height="98.814" width="269.469">
  <linearGradient gradientTransform="translate(-408 -677.5)" y2="714.041" x2="416.734" y1="732.71" x1="426.751" gradientUnits="userSpaceOnUse" id="a">
    <stop offset="0" stop-color="#0070B6"/>
    <stop offset="1" stop-color="#1D2C5E"/>
  </linearGradient>
  <path transform="translate(-5.45 -1.686)" fill="url(#a)" d="M5.45 38.243l12.027 20.3 4.8-4.578L9.19 34.445"/>
  <path fill="#0071b9" d="M178.558 20.602l-.465 2.676 5.752-1.856-.717-3.278"/>
  <linearGradient gradientTransform="translate(-408 -677.5)" y2="680.949" x2="561.642" y1="694.573" x1="548.927" gradientUnits="userSpaceOnUse" id="b">
    <stop offset="0" stop-color="#0070B6"/>
    <stop offset="1" stop-color="#1D2C5E"/>
  </linearGradient>
  <path transform="translate(-5.45 -1.686)" fill="url(#b)" d="M150.495 4.012l-18.508 21.224 5.386-1.55 17.62-22"/>
  <path fill="#1d2c5e" d="M244.056 31.345l4.543-2.42-1.3 11.375m-31.48-1.66l4.03.827 5.15-2.502-4.48-1.67"/>
  <linearGradient gradientTransform="translate(-408 -677.5)" y2="704.548" x2="491.937" y1="717.286" x1="493.453" gradientUnits="userSpaceOnUse" id="c">
    <stop offset="0" stop-color="#0070B6"/>
    <stop offset="1" stop-color="#1D2C5E"/>
  </linearGradient>
  <path transform="translate(-5.45 -1.686)" fill="url(#c)" d="M82.05 28.247l.645 13.183 5.636-2.277-1.68-13.37"/>
  <linearGradient gradientTransform="translate(-408 -677.5)" y2="703.336" x2="631.742" y1="714.834" x1="632.348" gradientUnits="userSpaceOnUse" id="d">
    <stop offset="0" stop-color="#125D9E"/>
    <stop offset="1" stop-color="#1D2C5E"/>
  </linearGradient>
  <path transform="translate(-5.45 -1.686)" fill="url(#d)" d="M225.64 24.313l-4.535 2.448.166 13.57 4.57-2.34 1.44-6.56"/>
  <path fill="#312370" d="M219.567 39.505l-4.995 44.37 7.985-1.575 1.564-45.188"/>
  <path fill="#21386e" d="M229.345 86.002l.142 6.017 15.328 4.88 4.562-2.42-15.04-11.65-15.235-1.34-4.53 2.38m-42.09-8.46l3.768-2.03 2.4 4.43 3.55-1.95.708 5.84 22.284 3.95 4.453-2.45-30.728-18.72-21.798 3.73-4.26 4.04"/>
  <linearGradient gradientTransform="translate(-408 -677.5)" y2="719.489" x2="576.568" y1="698.261" x1="589.911" gradientUnits="userSpaceOnUse" id="e">
    <stop offset="0" stop-color="#125D9E"/>
    <stop offset="1" stop-color="#1D2C5E"/>
  </linearGradient>
  <path transform="translate(-5.45 -1.686)" fill="url(#e)" d="M170.838 22.514l-4.46 2.455-8.06 48.99 4.514-2.35 7.736-27.51"/>
  <path fill="#1d2c5e" d="M129.79 27.395l-3.555 1.893.3 1.185 8.457-5.373-3.696-3.966-4.76 2.416"/>
  <path fill="#21386e" d="M139.506 85.272l-36.34-18 4.562-3.45 36.3 19.008"/>
  <path fill="#1d2c5e" d="M106.58 18.277l-5.506 10.443 5.82-1.762 4.198-11.128"/>
  <linearGradient gradientTransform="translate(-413.45 -679.186)" y2="750.203" x2="480.919" y1="732.31" x1="471.821" gradientUnits="userSpaceOnUse" id="f">
    <stop offset="0" stop-color="#105FA1"/>
    <stop offset="1" stop-color="#1D2C5E"/>
  </linearGradient>
  <path d="M56.633 61.42l-4.646 3.188s.986 5.184 2.257 8.79c1.278 3.62 4.32 6.526 4.32 6.526 1.954 1.91 4.35 3.3 7.02 4.08 5.14 1.48 10.94.515 15.92-2.66 1.3-.824 3.068-2.143 4.154-3.184-4.894 2.97-29.025-16.74-29.025-16.74z" fill="url(#f)"/>
  <path fill="#1d2c5e" d="M81.496 38.67l4.24 46.775 17.324-2.563 4.635-2.43-21.5-44.587-4.422 1.49-4.53 2.39"/>
  <linearGradient gradientTransform="translate(-408 -677.5)" y2="750.612" x2="448.022" y1="726.202" x1="437.492" gradientUnits="userSpaceOnUse" id="g">
    <stop offset="0" stop-color="#105FA1"/>
    <stop offset="1" stop-color="#1D2C5E"/>
  </linearGradient>
  <path transform="translate(-5.45 -1.686)" fill="url(#g)" d="M22 56.602L41.358 100.5l18.39-5.932 4.49-3.018-38.17-39.935-4.775 2.862-3.815 4.067"/>
  <path d="M208.38 75.627l.26 2.155c1.585-.178 3.25-.383 4.673-.89 1.66-.568 5.266-2.174 6.637-3.357-.514.187-8.963 2.377-11.57 2.092m-65.058-11.21l.69 3.47c3.722-.553 6.917-1.93 10.058-3.82 1.97-1.172 4.135-2.943 4.818-3.415-.482.308-15.566 3.766-15.566 3.766z" fill="#1d2c5e"/>
  <path d="M40.938 94.652L39.5 91.46 21.15 50.5l-.378-.84-.834.385-.557.256-3.26 1.61c-.48-.81-1.28-2.16-1.84-3.1L6.89 36.32l-1.933-3.26 3.196-2.024c3.023-1.928 6.437-3.71 10.15-5.295 7.397-3.15 14.944-4.81 21.827-4.81 2.264 0 4.455.19 6.513.54 3.43.4 6.604 1.52 9.225 3.27 3.906 2.19 6.98 5.57 8.718 9.58 1.426 3.3 1.704 7.15.798 11.16l-.532 2.35 1.953-1.41c1.316-.95 2.746-1.77 4.25-2.42 2.6-1.1 5.29-1.66 7.985-1.66 2.55 0 4.963.51 7.17 1.5l1.423.64-.143-1.55-.62-6.71-.1-1.06-1.035.27-3.11.81-.544-11.43 22.78-7.27-.18 8.88 1.72.44 4.98-9.53 14.9 13.21.62.55.61-.57c2.04-1.92 4.46-3.45 7.19-4.57l1.14-.46-.78-.95-2.68-3.28 17.1-19.72 8.96 13.367-13.71 7.37-3.04 1.64 3.46.075c6.5.14 12.26 2.89 16.21 7.74l1.43 1.76.92 1.137-1.52 1.62-1.02 1.086-3.422 3.65-.635.68.69.62 3.21 2.89 1.24 1.12.267-1.64 1.23-7.63.32-1.96.01.01.326-2 1.838-11.26h17.19l.13-.76.32-1.93h14.78l3.588 22.62.23 1.466 1.2-.877c1.45-1.05 3.055-1.92 4.77-2.573 2.28-.86 4.624-1.3 6.97-1.3 2.78 0 5.49.646 7.83 1.86.06.048.15.106.27.15l1.11.45.13-1.19.27-2.47.09-.81-.8-.172-3-.67-.144-11.792 22.83 5 1.712 8.487 1.775.03 1.77-7.31 19.06 4.64-19.48 58.7-13.94-4.38-.1-5.41-.012-.78-.77-.106-13.904-1.968.786-7.07.19-1.68-1.504.77c-.712.36-1.402.67-2.054.91-2.28.86-4.61 1.29-6.93 1.29-.67 0-1.35-.04-2-.11l-1.19-.14.18 1.18.98 6.22-20.29-3.58-1.07-9.22-.35-2.96-1.365 2.642-2.337 4.505-4.3-7.94-1.29-2.39-.406 2.68-.94 6.15-17.78-2.8 1.38-8.436.32-1.93-1.68 1.004c-2.91 1.742-6.253 3.06-10.22 4.012-1.383.334-2.83.57-4.303.69l-.833.07v16.75l-35.028-17.3-1.32-.648v1.466l.026 14.803-15.66 2.303-.66-7.11-.18-1.9-1.37 1.34c-2.07 2.03-4.4 3.6-6.93 4.67-2.59 1.1-5.25 1.66-7.93 1.66-2.67 0-5.18-.56-7.46-1.65-4.22-2.03-7.268-5.71-8.57-10.36-.62-2.18-.79-4.49-.5-6.85l.303-2.52L56 61c-1.297 1.23-2.693 2.404-4.153 3.483l-.495.37.156.6 5.274 20.25.936 3.593-3.534 1.12-9.93 3.18-3.324 1.07zm4.458-54.356c-.512 0-1.04.047-1.574.143l-.676.13-.998.19.3.97.197.63 2.84 9.29.284.89.42 1.34 1.05-.94.69-.62c2.75-2.48 3.72-4.99 3.13-8.16-.37-1.9-1.84-2.85-2.69-3.25-.89-.43-1.9-.64-3-.64zm76.135.305l-1.77 1.73-4.67 4.55-1.01.99 1.33.51 5.02 1.94 1.54.6-.32-1.61c-.41-2.09-.52-4.18-.33-6.21l.24-2.46zm20.42-5.16c-1.94 0-3.81.84-5.15 2.29-2.02 2.21-2.41 5.47-.97 8.11l.38.72.62 1.15.87-.96.56-.61 6.86-7.83.54-.62.87-.99-1.23-.45-.77-.28c-.8-.32-1.67-.48-2.54-.48z" fill="#ffcb05"/>
  <path d="M152.438 47.032c-.066.058-.127.132-.18.208.07-.063.137-.118.208-.176l-.028-.032zm5.912-5.477l3.426-3.654-1.172 1.25.034-.15-1.036 1.1-3.422 3.65 3.206 2.89.58-3.59 1.597 1.43" fill="#7d7f68"/>
  <path fill="#7d7f68" d="M158.35 41.555l3.213 2.89 1.23-7.626-1.017 1.08m-46.06 9.62l.05.02-.05-.02z"/>
  <path d="M134.677 50.694c.274.277.02.078.328.288l2.095-1.477c-.31-.22-.62-.456-.902-.72-3.04-2.77-2.25-9-.278-12.41-5.19 4.188-4.92 10.635-1.243 14.32" fill="#c7a008"/>
  <path d="M159.967 54.182c-3.46 2.862-7.404 4.728-12.615 5.987-1.14.26-2.255.45-3.347.54-8.27.81-15.21-2.99-17.843-9.15-.328-.75-.58-1.5-.772-2.31-1.218-5.19-.178-9.83 2.385-13.46.254-.36.52-.69.8-1.04-.13.11-.264.21-.373.31-.985.87-1.857 1.83-2.598 2.88-2.566 3.63-3.606 8.27-2.377 13.45.188.81.437 1.57.758 2.3 2.634 6.17 9.575 9.97 17.84 9.16 1.1-.11 2.212-.29 3.352-.56 5.217-1.26 9.158-3.12 12.618-5.98.845-.7 1.66-1.46 2.45-2.29l-.072-.07c-.08.064-.138.123-.206.18m-58.29-15.68l9.24-12.99-.373-.347-8.916 12.52m61.165-.87l-1.23 7.62-1.596-1.43-.58 3.59-3.207-2.885 3.422-3.64 1.036-1.09-.034.156 1.172-1.243M151.374 15.4l3.236-1.39-5.915-7.59-1.938 2.705m-84.972 25.1c-14.936-18.195-41.85-8.415-51.522.096l.378.66c2.23-1.27 4.57-2.43 7.04-3.46 9.61-4.1 18.77-5.3 26.11-4.02 2.6.3 5.35 1.07 7.74 2.67 3.32 1.86 5.83 4.5 7.29 7.88 2.61 5.99.31 13.96-5.82 20.62 7.7-7.06 12.96-13.81 8.79-24.43zm30.472 21.2c-.07-.33-.14-.667-.247-.99-.84-3.025-2.648-5.44-5.017-7.047-3.834-2.605-9.186-3.14-14.52-.888-2.806 1.22-5.246 3.08-7.175 5.31 1.483-1.27 3.178-2.332 5.01-3.13 5.32-2.26 10.673-1.72 14.52.88 2.37 1.61 4.16 4.025 5.02 7.046.095.33.17.67.243 1.01.23 1.15.34 2.31.29 3.51-.11 3.48-1.4 6.99-3.54 9.98-.34.48-.71.92-1.08 1.36 1.22-1.055 2.32-2.22 3.25-3.53 2.16-2.974 3.45-6.487 3.56-9.99.05-1.17-.05-2.35-.29-3.5" fill="#c7a008"/>
  <path d="M77.55 50.992c-.02.033 2.167-2.168 2.142-2.168-2.737-.104-3.894 2.477-3.99 2.68.563-.272 1.183-.45 1.848-.512m5.155 3.155c.11.37.17.74.17 1.144 0 .57-.128 1.12-.36 1.63.44-.23 3.604-1.76 2.377-5.01.066.1-2.266 2.24-2.187 2.25m-12.45 1.81c0-1.34 2.29-4.58 3.005-5.66-3.618 2.3-5.176 5.41-5.176 7.85 0 4.19 3.68 7.56 8.082 7.56 2.082 0 5.895-1.1 8.39-5.13-1.308.86-4.63 2.92-6.373 2.92-4.4 0-7.928-3.31-7.928-7.52m30.972 3.83l.057 16.96 2.69.16-.53-19.32M85.78 27.51l.056 1.507L98.59 25.22l.944 16.24 2.128-2.982-.454-16.297m23.124 11.15l-11.98-10.99-1.433 3.18 10.54 9.91m1.05 18.4l-14.07-4.65-2.05 2.17 14.01 5.61c1.58 3 3.99 5.56 7.02 7.44 2.93 1.79 6.29 2.87 9.84 3.21v6.92l2.17 1.08.68-10.39-17.63-11.38zm22.58-1.95c3.45-.83 5.44-2.63 7.16-4.62-1.29 1.06-7.74 2.46-8.82 2.83l-2.13 2.26c.97.09 2.59-.17 3.78-.47m-6.28-23.92c-6.37.84-9.69 6.18-10.24 6.84 2.35-1.99 5.3-3.46 8.62-4.25 7.88-1.91 14.83.5 19.12 5.81l2.66-2.25c-4.26-5.21-12.29-8.04-20.17-6.14M160.17 54c.77-.647 2.136-1.3 2.86-2.06l-8.53-7.62c-.65.78-1.24 2.067-2.04 2.744L160.17 54zm43.767 20.42c-8.95-7.355-8.42-23.124-4.02-28.127l-3.95-24.715-8.62 1.113-.39 2.18h6.52l3.45 22.43c-4.4 5.02-6.52 11.75-5.06 17.9 1.138 4.76 4.06 8.61 8.266 10.84.424.23.86.44 1.31.63l.052.33 2.56.41s.27-2.75-.15-2.96zm-34.39-49.207l-.37 2.178h9.83l2.89 15.88 2.18-2.2-2.3-16.77m4.59 31.74l-3.18 8.21.785 2.14 4.54-12.49m-11.58-3.01l-2.186 2.19-2.344 14.82 2.25.86m46.46-22.58c1.288.92 2.386 2.08 3.21 3.47.654 1.07 1.147 2.25 1.46 3.56 1.07 4.457-.21 9.27-3.04 13.137-.284.39-.6.77-.9 1.14 1.15-.99 15.12-11.29 1.47-24.83-15.01-4.95-20.69 4.846-21.22 5.467 1.585-1.34 3.415-2.46 5.397-3.22 5.08-1.92 10.08-1.25 13.63 1.29" fill="#c7a008"/>
  <path d="M213.556 47.122c.042.095 2.155-2.202 2.198-2.202-2.67.11-3.954 1.4-3.822 1.994-.16.23-.29.46-.392.713.57-.284 1.624-.502 2.016-.505m5.022 3.358c.096.357.142.732.134 1.135-.024.516-.158.99-.354 1.43.406-.183 3.643-1.188 2.407-4.75.032.1-2.222 2.186-2.187 2.184m-7.09 11.31c3.02.12 6.36-1.73 8.757-5.01-6.148 1.26-12.61-8.98-11.963-9.98-2.323 1.68-4.38 4.93-4.473 7.2-.16 4.21 3.26 7.61 7.67 7.78m33.69 26.67l1.44.96 17.59-52.78-13.17-3.04-.17 3.09 10.61 2.35m-37.2-11.11l.11 2.95 14 2.81 5.39 25.55 2.18-2.2-5.13-25.82m-5.78 25.82l-3.85 21.79 2.22.72 3.82-24.66M53.44 86.85L46.9 63.117l-2.397 1.676L50.57 87.53m1.176-36.368c-1.51 1.602-4.857 4.715-6.764 5.943l-1.158-3.718-2.536-8.152-1.612-5.52-1.573 2.02 1.606 5.527 2.53 8.146 1.15 3.73c2.61-1.683 6.41-4.84 8.35-7.976" fill="#c7a008"/>
  <path d="M144.498 37.13c-2.066-.796-4.992-.557-6.572 1.172-.367.4-1.08 1.424-1.307 1.88 1.52-1.215 4.25-1.478 6.03-.834l1.84-2.22zm-94.64 7.363c-.233-1.22-1.428-2.19-2.014-2.458-1.048-.506-2.86-.585-4.185-.344.23.83.51 1.79.62 2.19.53.08 1.42.24 1.88.45.58.28 1.59.94 1.83 2.17.31 1.64.23 3.17-.45 4.42 1.87-1.83 2.78-3.83 2.3-6.4" fill="#7d7f68"/>
  <path d="M53.137 44.46c-.9-4.825-7.207-7.484-13.46-4.073l1.61 5.52 2.537 8.16 1.157 3.716c4.7-3.017 9.41-6.642 8.16-13.324zm-6.212 7.417c-.683-2.23-2.18-7.042-2.18-7.042.006.022-.296-1.03-.654-2.234 1.33-.23 2.6-.14 3.65.37.59.28 1.62.93 1.84 2.17.52 2.78-.41 4.76-2.65 6.75z" fill="#3c5aa6"/>
  <path d="M147.772 36.805c-3.496-3.207-8.93-2.958-12.12.535-3.207 3.487-2.955 8.924.546 12.118.285.275.593.5.903.72l11.28-12.77c-.2-.208-.4-.415-.6-.603zm-10.648 8.983c-1.103-2.025-.88-4.596.77-6.398 1.585-1.728 4.015-2.22 6.087-1.42l-6.85 7.818z" fill="#3567b0"/>
  <path fill="#1e2d5f" d="M162.84 35.403l-6.245 6.017 5.933 5.328"/>
  <path d="M220.748 48.295c.095.38.144.754.132 1.153-.104 2.386-2.347 4.228-5.02 4.103-2.673-.09-4.772-2.12-4.667-4.5.09-2.23 2.078-3.99 4.533-4.11-.466-.1-.953-.16-1.46-.17-4.474-.19-8.13 2.98-8.284 6.92-.172 4.22 3.21 7.66 7.61 7.85 4.48.18 8.134-3 8.312-7.19.052-1.45-.378-2.85-1.156-4.03" fill="#3466af"/>
  <linearGradient gradientTransform="matrix(1 0 0 -1 -569.45 -926.686)" y2="-982.769" x2="655.635" y1="-982.769" x1="639.706" gradientUnits="userSpaceOnUse" id="h">
    <stop offset="0" stop-color="#3C5AA6"/>
    <stop offset=".933" stop-color="#2B73B9"/>
    <stop offset="1" stop-color="#2A75BB"/>
  </linearGradient>
  <path d="M85.053 53.112c0 2.396-2.18 4.316-4.848 4.316-2.676 0-4.847-1.92-4.847-4.316 0-2.233 1.91-4.074 4.358-4.288-.47-.085-.957-.134-1.46-.134-4.473 0-8 3.317-8 7.267 0 4.215 3.528 7.52 7.927 7.52 4.476 0 8-3.307 8-7.52 0-1.46-.48-2.834-1.31-3.966.112.35.18.72.18 1.13" fill="url(#h)"/>
  <g transform="translate(-5.45 -1.686)">
    <linearGradient gradientTransform="matrix(1 0 0 -1 -564 -925)" y2="-974.57" x2="838.921" y1="-974.57" x1="573.178" gradientUnits="userSpaceOnUse" id="i">
      <stop offset="0" stop-color="#3C5AA6"/>
      <stop offset=".933" stop-color="#2B73B9"/>
      <stop offset="1" stop-color="#2A75BB"/>
    </linearGradient>
    <path d="M254.02 30.598l-1.986 8.185-1.834-9.063-24.56-5.406.173 13.656 3.7.83-.266 2.463c-.048-.02-.078-.048-.104-.07-4.588-2.42-10.276-2.668-15.63-.646-1.795.687-3.462 1.59-4.974 2.688l-3.71-23.388H188.5l-.45 2.69h-17.19l-1.963 12.022-1.426-1.77c-4.16-5.12-10.2-7.94-16.89-8.08l14.6-7.85L155 1.68l-18.39 21.19 3.174 3.87c-2.875 1.176-5.387 2.796-7.47 4.753l-15.765-13.99-5.52 10.567.21-10.153-24.65 7.877.63 13.244 4.19-1.087.62 6.72c-4.79-2.15-10.55-2.1-15.9.16-1.59.69-3.06 1.54-4.42 2.53.92-4.09.7-8.12-.86-11.71-1.84-4.24-5.08-7.76-9.05-9.97-2.79-1.85-6.1-3.01-9.57-3.4-8.53-1.49-18.78.04-28.86 4.34-3.71 1.58-7.17 3.38-10.28 5.36l-3.94 2.5 2.38 4.02 7.39 12.48s2.26 3.82 2.28 3.82l4-1.97.55-.25L44.1 93.54l1.77 3.937 4.1-1.32 9.93-3.18 4.35-1.38-1.142-4.43-5.27-20.24c1.514-1.12 2.93-2.31 4.24-3.56-.298 2.42-.14 4.87.523 7.21 1.38 4.91 4.6 8.79 9.06 10.94 4.82 2.32 10.69 2.32 16.13.02 2.73-1.156 5.15-2.844 7.21-4.853l.75 8.068 17.39-2.56-.02-15.59 36.34 17.96v-17.4c1.46-.12 2.95-.35 4.44-.72 4.01-.963 7.43-2.29 10.47-4.112l-1.52 9.34 19.59 3.08 1.08-7.05 5.118 9.45 3.13-6.03 1.14 9.9 22.22 3.92-1.175-7.47c3.04.347 6.246-.06 9.34-1.23.73-.27 1.46-.6 2.15-.954l-.883 7.95 14.78 2.09.11 6.065 15.42 4.84 20.07-60.5-20.9-5.08zm-86.793 8.99l1.02-1.083-1.232 7.627-3.21-2.892 3.422-3.652zM154.21 8.432l5.38 7.31-15.386 7.63-1.063-1.616 11.07-13.324zM52.32 64.81l6.14 23.554-9.937 3.174-20.39-45.534c-1.108.583-3.156 1.56-5.037 2.483l-7.383-12.472c2.936-1.875 6.156-3.537 9.58-4.984 9.613-4.08 18.784-5.3 26.12-4.01 2.594.29 5.34 1.06 7.747 2.66 3.3 1.86 5.826 4.51 7.282 7.88 3.55 8.21-2.38 20.02-14.122 27.26zM98 60.616c-.113 3.507-1.4 7.02-3.557 9.994-2.05 2.876-4.916 5.25-8.287 6.7-8.62 3.652-17.24 0-19.543-8.184-2.23-7.913 2.96-17.333 11.312-20.93 5.334-2.253 10.686-1.72 14.52.886 2.368 1.606 4.174 4.02 5.017 7.047.106.32.176.65.247.98.24 1.15.33 2.33.29 3.5zm46.902 16.653l-36.055-18.04.064 18.89-9.32 1.27-.65-7.79c2.88-4.94 3.94-10.76 2.43-16.09-.82-2.94-2.35-5.48-4.42-7.52l-1.34-15.87-4.19 1.08-.18-4.02 14.98-4.46.92 15.44 11.03-15.5 10.79 10.27-15.08 15.89 14.17 5.61c1.58 3 4 5.55 7.03 7.43 2.93 1.8 6.29 2.87 9.84 3.22l.01 10.17zm-18.72-26.13l-5.016-1.94 4.675-4.55c-.2 2.08-.09 4.26.34 6.48zm39.236 4.72c-3.46 2.86-7.404 4.73-12.615 5.98-1.14.26-2.255.45-3.347.54-8.27.81-15.21-2.99-17.843-9.15-.328-.75-.58-1.5-.772-2.31-1.21-5.19-.17-9.83 2.39-13.46.74-1.06 1.62-2.03 2.6-2.9 2.42-2.16 5.5-3.72 9-4.56 7.88-1.9 14.82.5 19.07 5.72l-15.01 15.99c1.02.19 2.64-.08 3.84-.36 3.58-.88 5.58-2.77 7.34-4.84l6 5.4 1.82 1.64c-.79.81-1.62 1.58-2.46 2.29zm31.852 21.33l-3.26-21.64-4.62 11.93-6.916-14.92h-.077l-2.733 17.27-11.528-2.01 1.62-9.64c.436-.41.864-.82 1.285-1.25l3.74-3.85-3.63-3.25L175 26.9h11.63l2.91 15.89 3.263-18.416h8.32l3.45 22.438c-4.392 5.004-6.526 11.73-5.058 17.885 1.135 4.77 4.067 8.613 8.27 10.857.423.213.86.424 1.313.606l.44 2.91-12.267-1.875zM226 70.14c-1.27.908-2.67 1.677-4.173 2.23-2.97 1.13-5.922 1.368-8.553.845-1.834-.362-3.506-1.077-4.96-2.112-2.315-1.674-4.02-4.146-4.77-7.25-.876-3.73-.07-7.71 1.937-11.2 1-1.704 2.29-3.306 3.8-4.687 1.7-1.52 3.66-2.762 5.84-3.602 5.09-1.896 10.1-1.242 13.63 1.295 1.3.92 2.38 2.09 3.23 3.45.65 1.07 1.15 2.26 1.45 3.55 1.08 4.47-.2 9.27-3.03 13.13-1.21 1.64-2.68 3.12-4.38 4.34zm25.95 20.4L243.428 88l-.743-31.425-4.287 24.243-9.3-1.484.667-6.98c6.072-5.13 9.29-13.225 7.527-20.56-.77-3.248-2.44-6.076-4.794-8.226l.785-8.232-3.516-.936.236-4.395 16.02 3.22 5.386 25.546 5.52-22.9 12.19 2.7-17.17 51.98z" fill="url(#i)"/>
  </g>
  <path d="M253.505 91.83v-2.372h-.887v-.318h2.132v.318h-.89v2.372zm1.6 0v-2.69h.537l.637 1.905c.05.177.1.31.12.398.03-.098.08-.24.14-.43l.64-1.873h.48v2.69h-.35v-2.25l-.78 2.25h-.33l-.78-2.29v2.29z" style="line-height:125%;-inkscape-font-specification:Arial" font-size="4" letter-spacing="0" word-spacing="0" font-family="Arial"/>
</svg>
